# xmcd
#
# Track frame offsets:
#	150
#	19545
#	37035
#	55084
#	73129
#	90833
#	113386
#	132172
#
# Disc length: 2028 seconds
#
# Revision: 0
# Processed by: cddbd v1.5.1PL2 Copyright (c) Steve Scherf et al.
# Submitted via: dBpowerAMP V4.0
#
DISCID=5a07ea08
DTITLE=Metro Blues - Metro Blues
DYEAR=2002
DGENRE=Blues
TTITLE0=I Can't Love You
TTITLE1=Runnng Out Of Time
TTITLE2=Where Did You Get That Gun
TTITLE3=I'm Coming Home
TTITLE4=Fall All Over Again
TTITLE5=Mine All The Way
TTITLE6=It May Not Be Right
TTITLE7=Too Much Of A Good Thing
EXTD=
EXTT0=
EXTT1=
EXTT2=
EXTT3=
EXTT4=
EXTT5=
EXTT6=
EXTT7=
PLAYORDER=
